<mxfile host="app.diagrams.net" modified="2023-12-14T14:37:28.045Z" agent="Mozilla/5.0 (Windows NT 10.0; Win64; x64) AppleWebKit/537.36 (KHTML, like Gecko) Chrome/120.0.0.0 Safari/537.36" etag="BWdUVDZhVgvBPe14kisz" version="22.1.8" type="github">
  <diagram name="Page-1" id="FBOvdjXeOC8ymvFgn-oJ">
    <mxGraphModel dx="2150" dy="1817" grid="1" gridSize="10" guides="1" tooltips="1" connect="1" arrows="1" fold="1" page="1" pageScale="1" pageWidth="850" pageHeight="1100" math="0" shadow="0">
      <root>
        <mxCell id="0" />
        <mxCell id="1" parent="0" />
        <mxCell id="1AeqHyoSisKRmTngoQG4-1" value="" style="whiteSpace=wrap;html=1;aspect=fixed;" parent="1" vertex="1">
          <mxGeometry x="150" y="-200" width="540" height="540" as="geometry" />
        </mxCell>
        <mxCell id="1AeqHyoSisKRmTngoQG4-13" style="rounded=0;orthogonalLoop=1;jettySize=auto;html=1;entryX=1;entryY=0.5;entryDx=0;entryDy=0;endArrow=none;endFill=0;exitX=0;exitY=0.3333333333333333;exitDx=0;exitDy=0;exitPerimeter=0;" parent="1" source="1AeqHyoSisKRmTngoQG4-3" target="1AeqHyoSisKRmTngoQG4-7" edge="1">
          <mxGeometry relative="1" as="geometry" />
        </mxCell>
        <mxCell id="1AeqHyoSisKRmTngoQG4-14" style="rounded=0;orthogonalLoop=1;jettySize=auto;html=1;endArrow=none;endFill=0;exitX=0;exitY=0.3333333333333333;exitDx=0;exitDy=0;exitPerimeter=0;" parent="1" source="1AeqHyoSisKRmTngoQG4-3" target="1AeqHyoSisKRmTngoQG4-9" edge="1">
          <mxGeometry relative="1" as="geometry" />
        </mxCell>
        <mxCell id="1AeqHyoSisKRmTngoQG4-15" style="rounded=0;orthogonalLoop=1;jettySize=auto;html=1;entryX=1;entryY=0.5;entryDx=0;entryDy=0;endArrow=none;endFill=0;exitX=0;exitY=0.3333333333333333;exitDx=0;exitDy=0;exitPerimeter=0;" parent="1" source="1AeqHyoSisKRmTngoQG4-3" target="1AeqHyoSisKRmTngoQG4-12" edge="1">
          <mxGeometry relative="1" as="geometry" />
        </mxCell>
        <mxCell id="1AeqHyoSisKRmTngoQG4-3" value="USER (Guru/Siswa)" style="shape=umlActor;verticalLabelPosition=bottom;verticalAlign=top;html=1;outlineConnect=0;" parent="1" vertex="1">
          <mxGeometry x="790" width="90" height="160" as="geometry" />
        </mxCell>
        <mxCell id="39vOTnn-PA747Jpne2_q-6" style="rounded=0;orthogonalLoop=1;jettySize=auto;html=1;endArrow=none;endFill=0;exitX=1;exitY=0.3333333333333333;exitDx=0;exitDy=0;exitPerimeter=0;" edge="1" parent="1" source="1AeqHyoSisKRmTngoQG4-5" target="1AeqHyoSisKRmTngoQG4-6">
          <mxGeometry relative="1" as="geometry">
            <mxPoint x="50" y="66" as="sourcePoint" />
          </mxGeometry>
        </mxCell>
        <mxCell id="39vOTnn-PA747Jpne2_q-7" style="rounded=0;orthogonalLoop=1;jettySize=auto;html=1;endArrow=none;endFill=0;exitX=1;exitY=0.3333333333333333;exitDx=0;exitDy=0;exitPerimeter=0;" edge="1" parent="1" source="1AeqHyoSisKRmTngoQG4-5" target="1AeqHyoSisKRmTngoQG4-10">
          <mxGeometry relative="1" as="geometry">
            <mxPoint x="50" y="70" as="sourcePoint" />
          </mxGeometry>
        </mxCell>
        <mxCell id="39vOTnn-PA747Jpne2_q-8" style="rounded=0;orthogonalLoop=1;jettySize=auto;html=1;endArrow=none;endFill=0;exitX=1;exitY=0.3333333333333333;exitDx=0;exitDy=0;exitPerimeter=0;" edge="1" parent="1" source="1AeqHyoSisKRmTngoQG4-5" target="1AeqHyoSisKRmTngoQG4-8">
          <mxGeometry relative="1" as="geometry" />
        </mxCell>
        <mxCell id="39vOTnn-PA747Jpne2_q-9" style="rounded=0;orthogonalLoop=1;jettySize=auto;html=1;entryX=0;entryY=0.5;entryDx=0;entryDy=0;endArrow=none;endFill=0;exitX=1;exitY=0.3333333333333333;exitDx=0;exitDy=0;exitPerimeter=0;" edge="1" parent="1" source="1AeqHyoSisKRmTngoQG4-5" target="1AeqHyoSisKRmTngoQG4-11">
          <mxGeometry relative="1" as="geometry" />
        </mxCell>
        <mxCell id="1AeqHyoSisKRmTngoQG4-5" value="ADMIN" style="shape=umlActor;verticalLabelPosition=bottom;verticalAlign=top;html=1;outlineConnect=0;" parent="1" vertex="1">
          <mxGeometry x="-40" width="90" height="160" as="geometry" />
        </mxCell>
        <mxCell id="39vOTnn-PA747Jpne2_q-10" style="rounded=0;orthogonalLoop=1;jettySize=auto;html=1;dashed=1;" edge="1" parent="1" source="1AeqHyoSisKRmTngoQG4-6" target="1AeqHyoSisKRmTngoQG4-7">
          <mxGeometry relative="1" as="geometry" />
        </mxCell>
        <mxCell id="39vOTnn-PA747Jpne2_q-12" value="EXTEND" style="edgeLabel;html=1;align=center;verticalAlign=middle;resizable=0;points=[];" vertex="1" connectable="0" parent="39vOTnn-PA747Jpne2_q-10">
          <mxGeometry x="0.0386" relative="1" as="geometry">
            <mxPoint as="offset" />
          </mxGeometry>
        </mxCell>
        <mxCell id="1AeqHyoSisKRmTngoQG4-6" value="Login" style="ellipse;whiteSpace=wrap;html=1;" parent="1" vertex="1">
          <mxGeometry x="330" y="-80" width="120" height="80" as="geometry" />
        </mxCell>
        <mxCell id="1AeqHyoSisKRmTngoQG4-7" value="register" style="ellipse;whiteSpace=wrap;html=1;" parent="1" vertex="1">
          <mxGeometry x="510" y="-150" width="120" height="80" as="geometry" />
        </mxCell>
        <mxCell id="39vOTnn-PA747Jpne2_q-3" style="rounded=0;orthogonalLoop=1;jettySize=auto;html=1;dashed=1;" edge="1" parent="1" source="1AeqHyoSisKRmTngoQG4-8" target="1AeqHyoSisKRmTngoQG4-6">
          <mxGeometry relative="1" as="geometry" />
        </mxCell>
        <mxCell id="39vOTnn-PA747Jpne2_q-17" value="INCLUDE" style="edgeLabel;html=1;align=center;verticalAlign=middle;resizable=0;points=[];" vertex="1" connectable="0" parent="39vOTnn-PA747Jpne2_q-3">
          <mxGeometry x="-0.169" y="1" relative="1" as="geometry">
            <mxPoint as="offset" />
          </mxGeometry>
        </mxCell>
        <mxCell id="1AeqHyoSisKRmTngoQG4-8" value="kelola data buku" style="ellipse;whiteSpace=wrap;html=1;" parent="1" vertex="1">
          <mxGeometry x="210" y="120" width="120" height="80" as="geometry" />
        </mxCell>
        <mxCell id="39vOTnn-PA747Jpne2_q-11" style="rounded=0;orthogonalLoop=1;jettySize=auto;html=1;entryX=1;entryY=0.5;entryDx=0;entryDy=0;dashed=1;" edge="1" parent="1" source="1AeqHyoSisKRmTngoQG4-9" target="1AeqHyoSisKRmTngoQG4-6">
          <mxGeometry relative="1" as="geometry" />
        </mxCell>
        <mxCell id="39vOTnn-PA747Jpne2_q-15" value="INCLUDE" style="edgeLabel;html=1;align=center;verticalAlign=middle;resizable=0;points=[];" vertex="1" connectable="0" parent="39vOTnn-PA747Jpne2_q-11">
          <mxGeometry x="0.0008" y="-4" relative="1" as="geometry">
            <mxPoint as="offset" />
          </mxGeometry>
        </mxCell>
        <mxCell id="39vOTnn-PA747Jpne2_q-46" style="rounded=0;orthogonalLoop=1;jettySize=auto;html=1;entryX=1;entryY=0.5;entryDx=0;entryDy=0;dashed=1;" edge="1" parent="1" source="1AeqHyoSisKRmTngoQG4-9" target="1AeqHyoSisKRmTngoQG4-8">
          <mxGeometry relative="1" as="geometry" />
        </mxCell>
        <mxCell id="39vOTnn-PA747Jpne2_q-47" value="INCLUDE" style="edgeLabel;html=1;align=center;verticalAlign=middle;resizable=0;points=[];" vertex="1" connectable="0" parent="39vOTnn-PA747Jpne2_q-46">
          <mxGeometry x="-0.1265" relative="1" as="geometry">
            <mxPoint x="-1" as="offset" />
          </mxGeometry>
        </mxCell>
        <mxCell id="1AeqHyoSisKRmTngoQG4-9" value="Lihat buku" style="ellipse;whiteSpace=wrap;html=1;" parent="1" vertex="1">
          <mxGeometry x="500" y="30" width="120" height="80" as="geometry" />
        </mxCell>
        <mxCell id="39vOTnn-PA747Jpne2_q-2" style="rounded=0;orthogonalLoop=1;jettySize=auto;html=1;dashed=1;" edge="1" parent="1" source="1AeqHyoSisKRmTngoQG4-10" target="1AeqHyoSisKRmTngoQG4-6">
          <mxGeometry relative="1" as="geometry" />
        </mxCell>
        <mxCell id="39vOTnn-PA747Jpne2_q-16" value="INCLUDE" style="edgeLabel;html=1;align=center;verticalAlign=middle;resizable=0;points=[];" vertex="1" connectable="0" parent="39vOTnn-PA747Jpne2_q-2">
          <mxGeometry x="-0.2093" y="-1" relative="1" as="geometry">
            <mxPoint as="offset" />
          </mxGeometry>
        </mxCell>
        <mxCell id="1AeqHyoSisKRmTngoQG4-10" value="kelola data pengguna&amp;nbsp;" style="ellipse;whiteSpace=wrap;html=1;" parent="1" vertex="1">
          <mxGeometry x="170" y="30" width="120" height="80" as="geometry" />
        </mxCell>
        <mxCell id="39vOTnn-PA747Jpne2_q-1" style="rounded=0;orthogonalLoop=1;jettySize=auto;html=1;dashed=1;" edge="1" parent="1" source="1AeqHyoSisKRmTngoQG4-11" target="1AeqHyoSisKRmTngoQG4-12">
          <mxGeometry relative="1" as="geometry" />
        </mxCell>
        <mxCell id="39vOTnn-PA747Jpne2_q-14" value="INCLUDE" style="edgeLabel;html=1;align=center;verticalAlign=middle;resizable=0;points=[];" vertex="1" connectable="0" parent="39vOTnn-PA747Jpne2_q-1">
          <mxGeometry x="-0.0588" y="-1" relative="1" as="geometry">
            <mxPoint as="offset" />
          </mxGeometry>
        </mxCell>
        <mxCell id="39vOTnn-PA747Jpne2_q-4" style="rounded=0;orthogonalLoop=1;jettySize=auto;html=1;dashed=1;" edge="1" parent="1" source="1AeqHyoSisKRmTngoQG4-11" target="1AeqHyoSisKRmTngoQG4-6">
          <mxGeometry relative="1" as="geometry" />
        </mxCell>
        <mxCell id="39vOTnn-PA747Jpne2_q-18" value="INCLUDE" style="edgeLabel;html=1;align=center;verticalAlign=middle;resizable=0;points=[];" vertex="1" connectable="0" parent="39vOTnn-PA747Jpne2_q-4">
          <mxGeometry x="-0.0787" relative="1" as="geometry">
            <mxPoint as="offset" />
          </mxGeometry>
        </mxCell>
        <mxCell id="1AeqHyoSisKRmTngoQG4-11" value="Laporan" style="ellipse;whiteSpace=wrap;html=1;" parent="1" vertex="1">
          <mxGeometry x="260" y="220" width="120" height="80" as="geometry" />
        </mxCell>
        <mxCell id="39vOTnn-PA747Jpne2_q-5" style="edgeStyle=orthogonalEdgeStyle;rounded=0;orthogonalLoop=1;jettySize=auto;html=1;dashed=1;" edge="1" parent="1" source="1AeqHyoSisKRmTngoQG4-12" target="1AeqHyoSisKRmTngoQG4-9">
          <mxGeometry relative="1" as="geometry" />
        </mxCell>
        <mxCell id="39vOTnn-PA747Jpne2_q-13" value="INCLUDE" style="edgeLabel;html=1;align=center;verticalAlign=middle;resizable=0;points=[];" vertex="1" connectable="0" parent="39vOTnn-PA747Jpne2_q-5">
          <mxGeometry x="-0.0657" relative="1" as="geometry">
            <mxPoint as="offset" />
          </mxGeometry>
        </mxCell>
        <mxCell id="1AeqHyoSisKRmTngoQG4-12" value="transaki buku" style="ellipse;whiteSpace=wrap;html=1;" parent="1" vertex="1">
          <mxGeometry x="500" y="170" width="120" height="80" as="geometry" />
        </mxCell>
      </root>
    </mxGraphModel>
  </diagram>
</mxfile>
